<?xml version="1.0" encoding="utf-8"?>
<!-- Generator: Adobe Illustrator 23.0.4, SVG Export Plug-In . SVG Version: 6.00 Build 0)  -->
<svg version="1.1" id="Layer_1" xmlns="http://www.w3.org/2000/svg" xmlns:xlink="http://www.w3.org/1999/xlink" x="0px" y="0px"
	 viewBox="0 0 1482 1482" style="enable-background:new 0 0 1482 1482;" xml:space="preserve">
<style type="text/css">
	.st0{fill:#FFFFFF;}
</style>
<title>Asset 1</title>
<path class="st0" d="M1264.9,217C975.6-72.3,506.4-72.3,217,217s-289.4,758.5,0,1047.9s758.5,289.4,1047.9,0
	S1554.3,506.4,1264.9,217z M1076.8,1070.7c-12.8,16.9-35.4,22.7-54.8,14.2c-4.2-2-8.3-4.3-12.2-6.8c-78.4-46.5-163-75.3-253-89
	c-55.1-8.4-110.8-11.5-166.4-9.2c-72.1,2.8-143.3,12.8-213.7,28.4c-7.1,1.6-14.4,3-21.7,3.1c-21.5,0.3-40.2-15-44-36.2
	c-4-22.2,7-43,27.3-51.2c4.4-1.6,8.9-2.9,13.4-3.8c57.6-12.9,115.8-22.7,174.6-27.7c32.8-2.7,65.8-3.8,98.8-5.7
	c97.4,1,192.7,14.2,285.2,45.4c50.9,17.1,99.8,39.6,146,67c4.1,2.3,8,4.8,11.8,7.5C1088.1,1022,1092,1050.6,1076.8,1070.7z
	 M1170.1,865.2c-16.4,26.9-50.4,35.3-78.7,19.3c-16-9-31.7-18.4-48-26.7C968.6,819.7,889.3,795,807,779.4
	c-63.3-12-127.3-17.9-195.2-18.1c-84.6,0.3-171.3,10.8-256,36c-13.8,4.1-27.6,4.4-41.2-1.1c-22-9-36.2-30.6-35.6-54.3
	c0.8-24.3,15.7-45.5,39.1-52.7c23.9-7.3,48.1-13.6,72.5-19c60-13.3,120.8-20.4,182.2-22.7c132.2-5,261.3,12.1,387.3,52.5
	c63.7,20.4,124.6,47.2,182.2,81.4c2.9,1.7,5.7,3.4,8.6,5.2C1180.8,804.8,1184.4,841.7,1170.1,865.2z M1178.9,655.6
	c-32-18.1-64.7-34.5-98.7-48.1c-67.7-27.1-137.8-45.4-209.5-58c-49.9-8.8-100.2-14.7-150.8-17.7c-52.6-3.2-105.2-3.5-157.8-0.8
	c-60.3,3.1-120.2,9.7-179.2,22.5c-21.8,4.7-43.3,10.6-64.8,16.4c-13.2,3.5-26.2,4-39.4,0.1c-28.8-8.4-48.9-34.5-49.6-64.5
	c-0.8-29.4,17.3-56.7,45.8-66c20.8-6.9,42.2-12.3,63.6-17.2c53-12.2,106.7-19.8,160.8-24.8c57.4-5.2,115.1-7,172.8-5.3
	c142,4.1,281.2,24.8,416,71.3c54.9,19,107.8,42.5,158.1,71.8c17.9,10.5,29.9,25.2,34.5,45.6c1,4.8,1.3,9.9,1.9,14.8
	C1282.3,649.4,1226,682.3,1178.9,655.6z"/>
</svg>
