<svg xmlns="http://www.w3.org/2000/svg" viewBox="0 0 200 162.54"><defs><style>.cls-1{fill:#2caae1;}</style></defs><title>Asset 1</title><g id="Layer_2" data-name="Layer 2"><g id="Layer_1-2" data-name="Layer 1"><path class="cls-1" d="M200,19.24a82.12,82.12,0,0,1-23.57,6.46,41.15,41.15,0,0,0,18-22.7,82.16,82.16,0,0,1-26.05,10A41.07,41.07,0,0,0,98.5,50.38,116.49,116.49,0,0,1,13.92,7.51a41.09,41.09,0,0,0,12.7,54.78A40.86,40.86,0,0,1,8,57.16c0,.17,0,.34,0,.52A41.06,41.06,0,0,0,41,97.91a41,41,0,0,1-18.53.7,41.07,41.07,0,0,0,38.33,28.5,82.36,82.36,0,0,1-51,17.56A83.3,83.3,0,0,1,0,144.1a116.17,116.17,0,0,0,62.9,18.44c75.47,0,116.74-62.53,116.74-116.75,0-1.78,0-3.55-.11-5.31A83.35,83.35,0,0,0,200,19.24Z"/></g></g></svg>